<svg class="svg-icon" style="width: 1em; height: 1em;vertical-align: middle;fill: currentColor;overflow: hidden;" viewBox="0 0 1024 1024" version="1.1" xmlns="http://www.w3.org/2000/svg"><path d="M512.008 81.858c-237.562 0-430.14 192.586-430.14 430.146 0 237.552 192.578 430.134 430.14 430.134 237.546 0 430.132-192.582 430.132-430.134 0-237.56-192.586-430.146-430.132-430.146z" fill="#EDF3FC" /><path d="M512.008 2C230.788 2 2 230.786 2 512.004 2 793.218 230.788 1022 512.008 1022 793.222 1022 1022 793.218 1022 512.004 1022 230.786 793.222 2 512.008 2z m0 1003.662c-272.21 0-493.662-221.454-493.662-493.658C18.346 239.796 239.8 18.338 512.008 18.338c272.204 0 493.648 221.458 493.648 493.666 0 272.204-221.446 493.658-493.648 493.658z" fill="#EDF3FC" /><path d="M412.21 218.238a67.878 67.878 0 0 1-49.322-49.32l-1.032-4.138-1.038 4.138a67.82 67.82 0 0 1-49.328 49.32l-4.122 1.04 4.122 1.048a67.794 67.794 0 0 1 49.328 49.304l1.038 4.142 1.032-4.142a67.844 67.844 0 0 1 49.322-49.304l4.146-1.048-4.146-1.04z" fill="#FFBE1B" /><path d="M849.924 551.886a50.856 50.856 0 0 1-36.956-36.954l-0.776-3.102-0.776 3.102a50.824 50.824 0 0 1-36.96 36.954l-3.09 0.778 3.09 0.786a50.798 50.798 0 0 1 36.96 36.944l0.776 3.104 0.776-3.104a50.834 50.834 0 0 1 36.956-36.944l3.106-0.786-3.106-0.778z" fill="#5D8EF9" /><path d="M722.568 331.316l-25.554-22.242a18.344 18.344 0 0 0-25.876 1.794l-22.036 25.324a241.706 241.706 0 0 1 51.456 48.356l23.804-27.36c6.654-7.64 5.846-19.224-1.794-25.872zM352.862 310.868c-6.65-7.642-18.234-8.442-25.876-1.794l-25.554 22.242c-7.64 6.65-8.448 18.234-1.794 25.872l23.804 27.36a241.712 241.712 0 0 1 51.458-48.356l-22.038-25.324zM559.454 233.7h-94.904a18.34 18.34 0 0 0-18.34 18.338v50.346a240.588 240.588 0 0 1 65.792-9.114c22.812 0 44.882 3.178 65.794 9.114v-50.346a18.342 18.342 0 0 0-18.342-18.338z" fill="#330D84" /><path d="M512 293.268c-132.766 0-240.392 107.628-240.392 240.396 0 132.766 107.628 240.394 240.392 240.394 15.7 0 31.042-1.518 45.898-4.394v-15.548c0-12.806 10.38-23.188 23.184-23.188h33.076c-4.606-6.686-6.622-14.886-5.616-23.318 1.462-12.198 10.578-21.54 20.034-28.056 8.398-5.786 9.066-17.262 1.344-23.822-25.938-21.996-47.856-61.732-47.856-92.006 0-53.242 32.38-76.106 70.96-78.736a8.08 8.08 0 0 1 1.078 0c38.576 2.63 70.954 25.494 70.954 78.736 0 30.274-21.922 70.008-47.848 92.006-7.73 6.558-7.058 18.036 1.336 23.822 5.094 3.51 10.078 7.848 13.832 13.002 37.348-42.364 60.016-97.978 60.016-158.896 0-132.762-107.62-240.392-240.392-240.392z" fill="#6857E5" /><path d="M512 339.846c-107.046 0-193.818 86.774-193.818 193.82 0 107.046 86.774 193.818 193.818 193.818 35.86 0 69.436-9.75 98.246-26.726 3.364-8.9 10.732-15.962 18.33-21.2 8.398-5.786 9.066-17.262 1.344-23.822-25.938-21.996-47.856-61.732-47.856-92.006 0-53.242 32.38-76.106 70.96-78.736a8.08 8.08 0 0 1 1.078 0c19.126 1.304 36.722 7.59 49.612 20.08-13.822-93.486-94.386-165.228-191.714-165.228z" fill="#330D84" /><path d="M526.502 504.83l-11.452-116.744c-0.384-3.924-6.108-3.918-6.484 0.008l-11.148 116.772c-10.506 5.33-17.718 16.208-17.718 28.798 0 17.842 14.46 32.302 32.3 32.302 17.836 0 32.302-14.458 32.302-32.302 0-12.62-7.252-23.518-17.8-28.834z" fill="#FFBE1B" /><path d="M380.084 775.118c-25.366-6.09-45.166-25.07-51.538-49.356l-1.086-4.152-1.076 4.152c-6.366 24.286-26.176 43.266-51.55 49.356l-4.32 1.034 4.32 1.038c25.376 6.088 45.184 25.062 51.55 49.356l1.076 4.148 1.086-4.148c6.372-24.294 26.17-43.268 51.538-49.356l4.338-1.038-4.338-1.034zM277.762 712.568a49.762 49.762 0 0 1-36.148-36.152l-0.76-3.038-0.758 3.038a49.756 49.756 0 0 1-36.158 36.152l-3.03 0.758 3.03 0.76a49.74 49.74 0 0 1 36.158 36.148l0.758 3.038 0.76-3.038a49.744 49.744 0 0 1 36.148-36.148l3.046-0.76-3.046-0.758z" fill="#330D84" /><path d="M678.544 679.558c-8.394-5.786-9.066-17.262-1.336-23.822 25.926-21.996 47.848-61.732 47.848-92.006 0-53.242-32.376-76.106-70.954-78.736a8.08 8.08 0 0 0-1.078 0c-38.582 2.63-70.96 25.494-70.96 78.736 0 30.274 21.918 70.008 47.856 92.006 7.722 6.558 7.054 18.036-1.344 23.822-9.456 6.516-18.57 15.858-20.034 28.056-1.008 8.432 1.01 16.632 5.616 23.318h78.806c4.606-6.686 6.624-14.886 5.616-23.318-1.46-12.2-10.578-21.54-20.036-28.056z" fill="#5D8EF9" /><path d="M569.214 786.412v5.362a8.938 8.938 0 0 0 8.936 8.938h150.82a8.938 8.938 0 0 0 8.936-8.938v-5.362h-168.692z" fill="#8AC9F9" /><path d="M726.038 730.93h-144.956c-12.802 0-23.184 10.38-23.184 23.188v32.292h191.324v-32.292c0-12.806-10.38-23.188-23.184-23.188z" fill="#FFBE1B" /></svg>